<?xml version="1.0" encoding="UTF-8"?>
<!DOCTYPE svg PUBLIC "-//W3C//DTD SVG 1.0//EN" "http://www.w3.org/TR/2001/REC-SVG-20010904/DTD/svg10.dtd">
<!-- Creator: CorelDRAW 2020 (64-Bit) -->
<svg xmlns="http://www.w3.org/2000/svg" xml:space="preserve" width="1000px" height="864px" version="1.0" style="shape-rendering:geometricPrecision; text-rendering:geometricPrecision; image-rendering:optimizeQuality; fill-rule:evenodd; clip-rule:evenodd"
viewBox="0 0 1004.751 867.791"
 xmlns:xlink="http://www.w3.org/1999/xlink"
 xmlns:xodm="http://www.corel.com/coreldraw/odm/2003">
 <defs>
  <style type="text/css">
   <![CDATA[
    .fil2 {fill:#09646F}
    .fil6 {fill:#0B6570}
    .fil1 {fill:#0B6774}
    .fil10 {fill:#0C5E6A}
    .fil3 {fill:#30BBBE}
    .fil5 {fill:#36C0C2}
    .fil11 {fill:#38B6B9}
    .fil4 {fill:#6CD4F1}
    .fil7 {fill:#6ED2EE}
    .fil0 {fill:#FAFEFD}
    .fil9 {fill:#FDFFFE}
    .fil8 {fill:#FEFEFE}
   ]]>
  </style>
 </defs>
 <g id="Layer_x0020_1">
  <metadata id="CorelCorpID_0Corel-Layer"/>
  <path class="fil0" d="M793.987 185.569c4.729,4.533 11.038,51.612 16.333,61.768l18.249 -0.094 19.877 -92.372 -17.174 0.334c-1.43,9.757 -9.983,58.009 -13.253,63.07l-15.476 -63.492 -15.927 0.467 -16.248 60.387 -12.221 -60.754 -18.05 -0.241 20.743 92.257 17.358 0.209 15.789 -61.539z"/>
  <path class="fil0" d="M685.859 170.072l10.132 0.14c11.071,0.038 20.649,-1.185 22.4,11.438 2.782,20.054 -16.004,16.861 -32.103,16.727l-0.429 -28.305zm-16.59 76.808l16.45 0.185 0.607 -33.036c13.925,-0.566 28.489,2.168 38.449,-5.155 18.871,-13.876 14.92,-48.776 -11.561,-53.498 -6.134,-1.094 -37.872,-1.156 -44.033,-0.152l0.088 91.656z"/>
  <path class="fil0" d="M886.362 177.603c0.971,0.994 0.689,0.54 1.58,2.118l5.371 16.468c1.853,5.722 4.95,13.218 5.577,18.774l-24.089 -0.361 11.561 -36.999zm-16.52 51.369l34.585 -0.227 5.688 18.229 17.854 -0.065 -32.714 -91.864 -17.429 0.05 -30.919 91.977 17.395 -0.04 5.54 -18.06z"/>
  <path class="fil1" d="M381.094 636.639c-13.583,-58.916 -32.007,-123.884 -48.519,-182.087 -0.239,-7.581 -11.973,-42.334 -14.889,-52.926l-106.911 -368.948c-1.274,-4.197 -0.452,-3.804 -3.674,-5.57l-207.101 0.054 0.242 91.958 137.972 0.311 42.447 147.03c27.173,97.8 57.631,197.249 85.132,294.795 21.644,76.769 14.953,75.6 67.614,75.476 15.552,-0.037 32.297,0.633 47.687,-0.093z"/>
  <path class="fil2" d="M669.181 155.224c6.161,-1.004 37.899,-0.942 44.033,0.152 26.481,4.722 30.432,39.622 11.561,53.498 -9.96,7.323 -24.524,4.589 -38.449,5.155l-0.607 33.036 -16.45 -0.185 -0.088 -91.656zm124.423 271.018c-0.841,-38.464 -0.597,-76.989 -0.49,-115.472l-0.039 -102.352c-0.01,-2.135 0.269,-5.917 0.162,-7.712 -0.098,-1.63 0.002,-1.49 -0.469,-3.021 -1.101,-3.577 1.926,-0.792 -1.523,-2.435l-13.047 51.858 -17.358 -0.209 -20.743 -92.257 18.05 0.241 12.221 60.754 16.248 -60.387c3.254,-2.728 2.735,-0.634 6.418,-2.362l-0.095 -131.867c-18.457,0.021 -172.078,-2.061 -195.814,-2.286 -18.728,-23.729 -33.885,-19.697 -52.869,-15.65l-103.784 23.031 117.31 -5.153c15.171,2.352 23.881,24.129 10.815,38.284 -9.773,8.426 -19.161,7.516 -36.807,10.107l-232.961 20.904 260.524 0.316c15.701,-0.594 27.755,-3.017 31.922,16.803 21.113,-13.866 43.741,-32.886 63.341,-41.597 -9.8,18.511 -33.755,51.176 -49.981,71.301 -4.046,4.732 -4.281,6.477 -3.982,10.665 8.144,69.42 19.546,141.887 31.189,210.909 1.864,4.802 146.422,64.391 161.762,67.587z"/>
  <path class="fil3" d="M864.302 247.032l-17.395 0.04 30.919 -91.977 17.429 -0.05 32.714 91.864 -17.854 0.065 -5.688 -18.229 -34.585 0.227 -5.54 18.06zm-77.686 -91.782l15.927 -0.467 15.476 63.492c3.27,-5.061 11.823,-53.313 13.253,-63.07l17.174 -0.334 -19.877 92.372 -18.249 0.094c-2.371,-4.547 -6.281,-24.397 -7.891,-30.943 -1.388,-5.645 -2.472,-10.366 -3.766,-15.794 -1.088,-4.566 -2.175,-12.634 -4.676,-15.031l-2.742 9.681c3.449,1.643 0.422,-1.142 1.523,2.435 0.471,1.531 0.371,1.391 0.469,3.021 0.107,1.795 -0.172,5.577 -0.162,7.712l0.039 102.352c-0.107,38.483 -0.351,77.008 0.49,115.472 9.6,-2.174 151.268,-61.57 160.984,-65.913l50.163 -339.227 -211.812 -0.081 0.095 131.867c-3.683,1.728 -3.164,-0.366 -6.418,2.362z"/>
  <path class="fil4" d="M332.575 454.552c16.512,58.203 34.936,123.171 48.519,182.087 97.798,1.133 196.331,0.079 294.21,0.071 78.41,-0.006 64.604,2.726 83.439,-63.853 8.077,-28.553 27.331,-91.427 29.773,-117.369l-113.04 -46.818c-9.054,14.298 -10.523,61.42 -44.109,91.184 -26.468,23.456 -58.602,29.824 -104.146,30.917 -56.072,1.346 -130.82,5.261 -166.942,-35.628 -13.824,-15.648 -25.422,-38.681 -27.704,-40.591z"/>
  <path class="fil5" d="M657.967 732.978c24.306,-5.095 44.154,13.512 47.482,33.19 4.153,24.559 -13.114,44.601 -32.745,48.214 -53.334,9.817 -68.753,-70.08 -14.737,-81.404zm-86.677 52.528c6.698,47.913 48.029,87.581 105.033,81.496 48.501,-5.178 87.518,-48.932 81.552,-105.478 -4.921,-46.639 -50.022,-88.279 -105.056,-81.027 -52.723,6.948 -88.472,55.345 -81.529,105.009z"/>
  <path class="fil6" d="M329.919 732.693c25.148,-3.655 43.213,13.729 46.552,34.545 3.922,24.458 -13.796,44.786 -34.444,47.554 -55.263,7.406 -65.801,-74.297 -12.108,-82.099zm-87.427 52.813c6.128,48.412 48.677,88.054 104.979,81.592 47.537,-5.455 88.713,-49.933 81.646,-105.434 -6.044,-47.46 -48.905,-88.07 -104.607,-80.941 -48.086,6.153 -89.097,48.873 -82.018,104.783z"/>
  <path class="fil7" d="M579.486 130.022l-152.792 121.353c-12.713,11.486 -20.872,9.661 -28.494,3.128l-57.424 -38.596 47.145 83.875c4.107,6.516 8.429,15.499 15.745,18.039 12.418,4.31 18.048,-5.122 22.781,-9.83l201.047 -214.596 -48.008 36.627z"/>
  <path class="fil8" d="M329.919 732.693c-53.693,7.802 -43.155,89.505 12.108,82.099 20.648,-2.768 38.366,-23.096 34.444,-47.554 -3.339,-20.816 -21.404,-38.2 -46.552,-34.545z"/>
  <path class="fil9" d="M657.967 732.978c-54.016,11.324 -38.597,91.221 14.737,81.404 19.631,-3.613 36.898,-23.655 32.745,-48.214 -3.328,-19.678 -23.176,-38.285 -47.482,-33.19z"/>
  <path class="fil10" d="M686.288 198.377c16.099,0.134 34.885,3.327 32.103,-16.727 -1.751,-12.623 -11.329,-11.4 -22.4,-11.438l-10.132 -0.14 0.429 28.305z"/>
  <path class="fil11" d="M874.801 214.602l24.089 0.361c-0.956,-8.469 -7.946,-26.035 -10.948,-35.242 -3.224,-5.711 -11.678,30.202 -13.141,34.881z"/>
 </g>
</svg>
